# xmcd CD database file
#
# Track frame offsets:
#	150
#	10302
#	25402
#	38756
#	52618
#	66892
#	79364
#	88879
#	98738
#	113378
#	125184
#	139321
#	151144
#	164963
#	177538
#	191365
#	204846
#	215489
#	230038
#	241625
#	254412
#	263229
#
# Disc length: 3669 seconds
#
# Revision: 0
# Processed by: cddbd v1.5.2PL0 Copyright (c) Steve Scherf et al.
# Submitted via: CDex 1.51
#
DISCID=340e5316
DTITLE=Ulli´s Country Band - In the shadow (A tribute to Johnny Cash)
DYEAR=2004
DGENRE=Country
TTITLE0=Big River
TTITLE1=I would like to see you again
TTITLE2=Folsom prison blues
TTITLE3=The sea of heartbreak
TTITLE4=Ghostriders in the sky
TTITLE5=Help me make it through the night
TTITLE6=All over again
TTITLE7=If i were a carpenter
TTITLE8=No expectations
TTITLE9=Lady came from Baltimore
TTITLE10=Folsom prison blues (slow version)
TTITLE11=Blue train
TTITLE12=Michigan city,  Howdy do
TTITLE13=Melva´s wine
TTITLE14=Long black veil
TTITLE15=Tennessee flat top box
TTITLE16=Home of the blues
TTITLE17=Paradise
TTITLE18=Ballad of Boot Hill
TTITLE19=I got stripes
TTITLE20=Come in stranger
TTITLE21=Ring of fire
EXTD=YEAR: 2004
EXTT0=
EXTT1=
EXTT2=
EXTT3=
EXTT4=
EXTT5=
EXTT6=
EXTT7=
EXTT8=
EXTT9=
EXTT10=
EXTT11=
EXTT12=
EXTT13=
EXTT14=
EXTT15=
EXTT16=
EXTT17=
EXTT18=
EXTT19=
EXTT20=
EXTT21=
PLAYORDER=
